<?xml version="1.0"?>
<svg xmlns="http://www.w3.org/2000/svg" xmlns:xlink="http://www.w3.org/1999/xlink" version="1.1" id="Layer_1" x="0px" y="0px" viewBox="0 0 504.122 504.122" style="enable-background:new 0 0 504.122 504.122;" xml:space="preserve" width="512px" height="512px" class="sun"><g transform="matrix(0.988912 0 0 0.988912 2.79496 2.79496)"><circle style="fill:#558b2f;" cx="252.051" cy="252.046" r="252.046" data-original="#FF7900" class=""/><path style="fill:#33691e;" d="M430.282,73.823c98.446,98.422,98.446,258.016,0,356.454c-98.43,98.462-258.016,98.462-356.447-0.008  " data-original="#FF5500" class=""/><circle style="fill:#9ccc65;" cx="252.059" cy="252.062" r="185.509" data-original="#FF9700" class=""/><path style="fill:#558b2f;" d="M252.067,66.544c102.463-0.008,185.509,83.046,185.509,185.517  c0.016,102.463-83.046,185.517-185.509,185.509" data-original="#FF7900" class=""/><circle style="fill:#b2ff59" cx="252.067" cy="252.062" r="123.463" data-original="#FFAA00" class="active-path" data-old_color=" rgb(255, 170, 0)"/><path style="fill:#9ccc65;" d="M164.759,164.762c48.215-48.215,126.385-48.215,174.6,0c48.215,48.223,48.215,126.385,0,174.6" data-original="#FF9700" class=""/></g> </svg>